<svg xmlns="http://www.w3.org/2000/svg" viewBox="0 0 32 32">
  <rect width="32" height="32" fill="#E8621A" rx="6"/>
  <path d="M0 22 Q16 2 32 22 Z" fill="#F5874A" opacity="0.3"/>
  <rect x="15" y="4" width="1" height="5" fill="#FDF6EE" rx="0.5"/>
  <polygon points="16,4 16,7 18,6" fill="#FDF6EE"/>
  <rect x="2" y="20" width="28" height="10" fill="#FDF6EE" rx="1"/>
  <rect x="1" y="19" width="30" height="3" fill="#B84D10" rx="0.5"/>
  <line x1="6" y1="20" x2="6" y2="22" stroke="#F5874A" strokeWidth="0.5"/>
  <line x1="11" y1="20" x2="11" y2="22" stroke="#F5874A" strokeWidth="0.5"/>
  <line x1="16" y1="20" x2="16" y2="22" stroke="#F5874A" strokeWidth="0.5"/>
  <line x1="21" y1="20" x2="21" y2="22" stroke="#F5874A" strokeWidth="0.5"/>
  <line x1="26" y1="20" x2="26" y2="22" stroke="#F5874A" strokeWidth="0.5"/>
  <rect x="4" y="24" width="8" height="4" fill="#E8621A" rx="0.5" opacity="0.3"/>
  <rect x="4" y="24" width="8" height="4" fill="none" stroke="#E8621A" strokeWidth="0.5" rx="0.5"/>
  <line x1="8" y1="24" x2="8" y2="28" stroke="#E8621A" strokeWidth="0.3"/>
  <line x1="4" y1="26" x2="12" y2="26" stroke="#E8621A" strokeWidth="0.3"/>
  <rect x="20" y="24" width="8" height="4" fill="#E8621A" rx="0.5" opacity="0.3"/>
  <rect x="20" y="24" width="8" height="4" fill="none" stroke="#E8621A" strokeWidth="0.5" rx="0.5"/>
  <line x1="24" y1="24" x2="24" y2="28" stroke="#E8621A" strokeWidth="0.3"/>
  <line x1="20" y1="26" x2="28" y2="26" stroke="#E8621A" strokeWidth="0.3"/>
  <rect x="12" y="25" width="8" height="5" fill="#3D2C1E" rx="0.5"/>
  <circle cx="18" cy="29" r="0.5" fill="#E8621A"/>
</svg>
